HIERARCHY
ROOT root
{
	OFFSET	0	13.1	24.9
	CHANNELS 6  Xposition Yposition Zposition Xrotation Yrotation Zrotation
	JOINT spine_1
	{
		OFFSET	0	9.99999	0
		CHANNELS 3  Xrotation Yrotation Zrotation
		JOINT spine_2
		{
			OFFSET	0	112	-10
			CHANNELS 3  Xrotation Yrotation Zrotation
			JOINT spine_3
			{
				OFFSET	0	206.5	19.3
				CHANNELS 3  Xrotation Yrotation Zrotation
				JOINT spine_4
				{
					OFFSET	0	110.4	14.6
					CHANNELS 3  Xrotation Yrotation Zrotation
					JOINT neck_1
					{
						OFFSET	0	71.8	-50.3
						CHANNELS 3  Xrotation Yrotation Zrotation
						JOINT neck_2
						{
							OFFSET	0	86.2	-25.8
							CHANNELS 3  Xrotation Yrotation Zrotation
							JOINT head_ee
							{
								OFFSET	0	179.8	-8.7
								CHANNELS 3  Xrotation Yrotation Zrotation
								End Site
								{
									OFFSET	1	0	0
								}
							}
						}
					}
					JOINT left_clavicle
					{
						OFFSET	-43.2	22.4	-70.8
						CHANNELS 3  Xrotation Yrotation Zrotation
						JOINT left_shoulder
						{
							OFFSET	-93.9	-5.79999	48.7
							CHANNELS 3  Xrotation Yrotation Zrotation
							JOINT left_elbow
							{
								OFFSET	-291.4	-30.8	15.2
								CHANNELS 3  Xrotation Yrotation Zrotation
								JOINT left_lowarm_twist
								{
									OFFSET	-110.7	-3.89999	13.6
									CHANNELS 3  Xrotation Yrotation Zrotation
									JOINT left_hand
									{
										OFFSET	-110.7	-3.89999	13.6
										CHANNELS 3  Xrotation Yrotation Zrotation
										JOINT left_ee
										{
											OFFSET	-80.8	-5.10001	12.1
											CHANNELS 3  Xrotation Yrotation Zrotation
											End Site
											{
												OFFSET	1	0	0
											}
										}
									}
								}
							}
						}
					}
					JOINT right_clavicle
					{
						OFFSET	43.2	22.4	-70.8
						CHANNELS 3  Xrotation Yrotation Zrotation
						JOINT right_shoulder
						{
							OFFSET	93.9	-5.79999	48.7
							CHANNELS 3  Xrotation Yrotation Zrotation
							JOINT right_elbow
							{
								OFFSET	291.4	-30.8	15.2
								CHANNELS 3  Xrotation Yrotation Zrotation
								JOINT right_lowarm_twist
								{
									OFFSET	110.7	-3.89999	13.6
									CHANNELS 3  Xrotation Yrotation Zrotation
									JOINT right_hand
									{
										OFFSET	110.7	-3.89999	13.6
										CHANNELS 3  Xrotation Yrotation Zrotation
										JOINT right_ee
										{
											OFFSET	80.8	-5.10001	12.1
											CHANNELS 3  Xrotation Yrotation Zrotation
											End Site
											{
												OFFSET	1	0	0
											}
										}
									}
								}
							}
						}
					}
				}
			}
		}
	}
	JOINT left_hip
	{
		OFFSET	-82.8	-127.5	0.300001
		CHANNELS 3  Xrotation Yrotation Zrotation
		JOINT left_knee
		{
			OFFSET	-28.2	-396.7	2.2
			CHANNELS 3  Xrotation Yrotation Zrotation
			JOINT left_ankle
			{
				OFFSET	-11.7	-411.3	35.4
				CHANNELS 3  Xrotation Yrotation Zrotation
				JOINT left_toes
				{
					OFFSET	0	-60	-88.6
					CHANNELS 3  Xrotation Yrotation Zrotation
					JOINT left_foot_ee
					{
						OFFSET	-22.5	-16.5	-42.2
						CHANNELS 3  Xrotation Yrotation Zrotation
						End Site
						{
							OFFSET	1	0	0
						}
					}
				}
			}
		}
	}
	JOINT right_hip
	{
		OFFSET	82.8	-127.5	0.300001
		CHANNELS 3  Xrotation Yrotation Zrotation
		JOINT right_knee
		{
			OFFSET	28.2	-396.7	2.2
			CHANNELS 3  Xrotation Yrotation Zrotation
			JOINT right_ankle
			{
				OFFSET	11.7	-411.3	35.4
				CHANNELS 3  Xrotation Yrotation Zrotation
				JOINT right_toes
				{
					OFFSET	0	-60	-88.6
					CHANNELS 3  Xrotation Yrotation Zrotation
					JOINT right_foot_ee
					{
						OFFSET	22.5	-16.5	-42.2
						CHANNELS 3  Xrotation Yrotation Zrotation
						End Site
						{
							OFFSET	1	0	0
						}
					}
				}
			}
		}
	}
}
MOTION
Frames: 6
Frame Time: 0.02
1372.05 701.618 -1475.22 -17.8355058359 42.8210660996 3.93628969735 2.25547 0.634789 1.98858 2.25752 0.506991 2.02493 2.27541 0.15303 2.08179 2.26968 0.479822 2.03153 3.39479 1.5095 4.98981 3.47242 -1.66187 5.69353 -0.0 0.0 -0.0 9.5112 6.30825 18.2746 -23.5532 -41.6815 44.0516 2.01618 -44.9593 0.834362 -78.4011 -7.61866 5.29842 -11.3376 32.4146 -57.3013 -0.0 0.0 -0.0 3.87917 -22.6738 -8.0521 -12.2713 4.86009 -72.0379 1.36704 34.1036 -0.419315 67.3424 2.46937 7.74187 0.988525 6.93704 -3.73149 0.0 0.0 0.0 11.3592 -17.2457 17.9671 -16.0989 0.321691 2.44149 30.2939 20.4937 -4.04553 -20.2504 0.0 0.0 -0.0 0.0 -0.0 35.9896 7.43631 10.2706 -3.0858 -0.114696 -0.459626 -17.181 9.61954 -2.71764 31.2938 -0.0 -0.0 0.0 0.0 0.0 
1372.05 701.618 -1475.22 -17.8488397222 42.8657335541 3.95589844186 2.25547 0.634789 1.98858 2.25752 0.506991 2.02493 2.27541 0.15303 2.08179 2.26968 0.479822 2.03153 3.39479 1.5095 4.98981 3.47242 -1.66187 5.69353 -0.0 0.0 -0.0 9.5112 6.30825 18.2746 -23.5532 -41.6815 44.0516 2.01618 -44.9593 0.834362 -78.4011 -7.61866 5.29842 -11.3376 32.4146 -57.3013 -0.0 0.0 -0.0 3.87917 -22.6738 -8.0521 -12.2713 4.86009 -72.0379 1.36704 34.1036 -0.419315 67.3424 2.46937 7.74187 0.988525 6.93704 -3.73149 0.0 0.0 0.0 11.3592 -17.2457 17.9671 -16.0989 0.321691 2.44149 30.2939 20.4937 -4.04553 -20.2504 0.0 0.0 -0.0 0.0 -0.0 35.9896 7.43631 10.2706 -3.0858 -0.114696 -0.459626 -17.181 9.61954 -2.71764 31.2938 -0.0 -0.0 0.0 0.0 0.0 
1372.05 701.618 -1475.22 -17.7040410866 42.3749389503 3.7420611015 2.25547 0.634789 1.98858 2.25752 0.506991 2.02493 2.27541 0.15303 2.08179 2.26968 0.479822 2.03153 3.39479 1.5095 4.98981 3.47242 -1.66187 5.69353 -0.0 0.0 -0.0 9.5112 6.30825 18.2746 -23.5532 -41.6815 44.0516 2.01618 -44.9593 0.834362 -78.4011 -7.61866 5.29842 -11.3376 32.4146 -57.3013 -0.0 0.0 -0.0 3.87917 -22.6738 -8.0521 -12.2713 4.86009 -72.0379 1.36704 34.1036 -0.419315 67.3424 2.46937 7.74187 0.988525 6.93704 -3.73149 0.0 0.0 0.0 11.3592 -17.2457 17.9671 -16.0989 0.321691 2.44149 30.2939 20.4937 -4.04553 -20.2504 0.0 0.0 -0.0 0.0 -0.0 35.9896 7.43631 10.2706 -3.0858 -0.114696 -0.459626 -17.181 9.61954 -2.71764 31.2938 -0.0 -0.0 0.0 0.0 0.0 
1356.61607281 701.054 -1488.82094084 -17.6900365021 41.8637475511 3.02727586521 2.27378 0.697224 2.22793 2.27637 0.554079 2.26776 2.29823 0.158842 2.32902 2.29104 0.524579 2.27476 4.19575 2.05356 5.00827 4.26736 -0.798752 5.78839 -0.0 0.0 -0.0 8.97652 7.3287 17.174 -24.7144 -42.4697 45.4252 1.78685 -41.5099 0.677199 -77.3001 -7.47842 5.30794 -11.2885 32.4078 -56.7401 -0.0 0.0 -0.0 4.89072 -20.6085 -9.54478 -12.9685 6.71672 -70.4443 1.27251 32.2243 -0.367597 66.3167 2.36739 7.6587 1.17618 7.94002 -4.57537 0.0 0.0 0.0 11.3021 -16.7203 17.9526 -17.2622 0.318183 2.61994 30.4782 22.5322 -4.10596 -20.5664 0.0 0.0 -0.0 0.0 -0.0 35.5273 7.3616 10.2103 -3.20703 -0.118695 -0.477802 -16.6849 9.28284 -2.63327 31.6912 -0.0 -0.0 0.0 0.0 0.0 
1349.97570996 702.743 -1502.35839052 -18.5890623883 43.1717067543 3.6332385607 2.35396 0.736839 2.36212 2.35687 0.585083 2.40418 2.38127 0.169712 2.46849 2.3732 0.55732 2.41077 5.86145 2.06058 4.1414 5.90714 -0.152066 4.87183 -0.0 0.0 -0.0 8.70114 8.02913 16.6049 -23.4484 -41.5411 47.7405 1.6346 -38.9952 0.5788 -75.4659 -7.24439 5.31778 -10.9284 31.2129 -55.4442 -0.0 0.0 -0.0 5.99984 -21.0394 -11.1725 -10.8006 5.26502 -69.2154 1.21948 31.1347 -0.339748 64.7335 2.21297 7.52681 1.21331 7.29272 -5.10236 0.0 0.0 0.0 11.3871 -17.2535 17.346 -17.9505 0.314403 2.72547 30.5159 21.978 -4.09877 -20.5181 0.0 0.0 -0.0 0.0 -0.0 35.4776 7.97006 10.2397 -3.98462 -0.143428 -0.594575 -16.0348 8.77611 -2.52239 32.9599 -0.0 -0.0 0.0 0.0 0.0 
1350.29888185 702.743 -1502.61809081 -18.3893052985 42.5277166505 3.33951666252 2.35396 0.736839 2.36212 2.35687 0.585083 2.40418 2.38127 0.169712 2.46849 2.3732 0.55732 2.41077 5.86145 2.06058 4.1414 5.90714 -0.152066 4.87183 -0.0 0.0 -0.0 8.70114 8.02913 16.6049 -23.4484 -41.5411 47.7405 1.6346 -38.9952 0.5788 -75.4659 -7.24439 5.31778 -10.9284 31.2129 -55.4442 -0.0 0.0 -0.0 5.99984 -21.0394 -11.1725 -10.8006 5.26502 -69.2154 1.21948 31.1347 -0.339748 64.7335 2.21297 7.52681 1.21331 7.29272 -5.10236 0.0 0.0 0.0 11.3871 -17.2535 17.346 -17.9505 0.314403 2.72547 30.5159 21.978 -4.09877 -20.5181 0.0 0.0 -0.0 0.0 -0.0 35.4776 7.97006 10.2397 -3.98462 -0.143428 -0.594575 -16.0348 8.77611 -2.52239 32.9599 -0.0 -0.0 0.0 0.0 0.0 
